# xmcd
#
# Track frame offsets: 
#        150
#        13350
#        25103
#        35190
#        47408
#        58225
#        69148
#        81360
#        91863
#        103380
#        116942
#        128995
#
# Disc length: 1892 seconds
#
# Revision: 0
# Processed by: cddbd v1.5.2PL0 Copyright (c) Steve Scherf et al.
# Submitted via: ExactAudioCopy v0.99pb3
#
DISCID=a907620c
DTITLE=Alberto Podesta - Alma de bohemio
DYEAR=1900
DGENRE=Tango
TTITLE0=Alma de bohemio
TTITLE1=Adios
TTITLE2=Tu, il cielo y tu
TTITLE3=Manana zarpa un barco
TTITLE4=Motivo sentimental
TTITLE5=Darme tiempo
TTITLE6=Tu angustia y mi dolor
TTITLE7=Nada
TTITLE8=Sin speranza
TTITLE9=Viejas caricias
TTITLE10=Ave de paso
TTITLE11=El bazar de los juguetes
EXTD=
EXTT0=
EXTT1=
EXTT2=
EXTT3=
EXTT4=
EXTT5=
EXTT6=
EXTT7=
EXTT8=
EXTT9=
EXTT10=
EXTT11=
PLAYORDER=
